<?xml version="1.0" encoding="iso-8859-1"?>
<!-- Uploaded to: SVG Repo, www.svgrepo.com, Generator: SVG Repo Mixer Tools -->
<svg fill="#000000" height="800px" width="800px" version="1.1" id="Layer_1" xmlns="http://www.w3.org/2000/svg" xmlns:xlink="http://www.w3.org/1999/xlink" 
	 viewBox="0 0 512.002 512.002" xml:space="preserve">
<g>
	<g>
		<g>
			<path d="M460.152,5.267c-1.314-3.191-4.437-5.265-7.885-5.265h-102.4c-3.447,0-6.562,2.074-7.885,5.265
				c-1.323,3.191-0.589,6.861,1.852,9.301c20.403,20.395,31.633,47.522,31.633,76.373v307.362c0,36.71,5.896,73.003,17.51,107.861
				c1.161,3.482,4.42,5.837,8.09,5.837c3.678,0,6.938-2.355,8.09-5.837c11.622-34.859,17.51-71.151,17.51-107.861V90.941
				c0-28.851,11.238-55.979,31.633-76.373C460.741,12.128,461.475,8.458,460.152,5.267z"/>
			<path d="M307.201,0h-102.4c-3.448,0-6.571,2.074-7.885,5.265c-1.323,3.191-0.589,6.861,1.852,9.301
				c20.403,20.403,31.633,47.522,31.633,76.373v204.962c0,36.719,5.888,73.003,17.51,107.861c1.161,3.49,4.412,5.837,8.09,5.837
				c3.678,0,6.938-2.347,8.09-5.837c11.622-34.859,17.51-71.142,17.51-107.861V90.94c0-28.851,11.23-55.97,31.633-76.373
				c2.441-2.44,3.174-6.11,1.852-9.301C313.772,2.074,310.649,0,307.201,0z"/>
			<path d="M162.135,0h-102.4c-3.447,0-6.571,2.074-7.885,5.265c-1.323,3.191-0.589,6.861,1.852,9.301
				C74.105,34.97,85.335,62.089,85.335,90.94v128.162c0,36.719,5.888,73.003,17.51,107.861c1.161,3.49,4.412,5.837,8.09,5.837
				s6.938-2.347,8.09-5.837c11.622-34.859,17.51-71.142,17.51-107.861V90.94c0-28.851,11.23-55.97,31.633-76.373
				c2.44-2.44,3.174-6.11,1.852-9.301C168.705,2.074,165.582,0,162.135,0z"/>
		</g>
	</g>
</g>
</svg>