<?xml version="1.0" encoding="UTF-8"?>
<svg xmlns="http://www.w3.org/2000/svg" xmlns:xlink="http://www.w3.org/1999/xlink" width="153px" height="25px" viewBox="0 0 153 25" version="1.1">
<defs>
<clipPath id="clip1">
  <path d="M 0.511719 0.00390625 L 30 0.00390625 L 30 24.996094 L 0.511719 24.996094 Z M 0.511719 0.00390625 "/>
</clipPath>
<clipPath id="clip2">
  <path d="M 10.199219 0.00390625 L 39.78125 0.00390625 L 39.78125 24.996094 L 10.199219 24.996094 Z M 10.199219 0.00390625 "/>
</clipPath>
<clipPath id="clip3">
  <path d="M 20.089844 0.00390625 L 50 0.00390625 L 50 24.996094 L 20.089844 24.996094 Z M 20.089844 0.00390625 "/>
</clipPath>
</defs>
<g id="surface1">
<g clip-path="url(#clip1)" clip-rule="nonzero">
<path style=" stroke:none;fill-rule:nonzero;fill:rgb(9.803922%,9.019608%,8.627451%);fill-opacity:1;" d="M 27.582031 6.714844 L 29.902344 4.394531 L 25.476562 0.00390625 L 0.511719 24.996094 L 5.113281 24.996094 L 25.476562 4.609375 L 27.582031 6.714844 "/>
</g>
<g clip-path="url(#clip2)" clip-rule="nonzero">
<path style=" stroke:none;fill-rule:nonzero;fill:rgb(9.803922%,9.019608%,8.627451%);fill-opacity:1;" d="M 37.390625 6.714844 L 39.707031 4.394531 L 35.285156 0.00390625 L 10.320312 24.996094 L 14.917969 24.996094 L 35.285156 4.609375 L 37.390625 6.714844 "/>
</g>
<g clip-path="url(#clip3)" clip-rule="nonzero">
<path style=" stroke:none;fill-rule:nonzero;fill:rgb(9.803922%,9.019608%,8.627451%);fill-opacity:1;" d="M 47.664062 7.214844 L 49.980469 4.894531 L 45.09375 0.00390625 L 20.128906 24.996094 L 24.730469 24.996094 L 45.09375 4.609375 L 47.664062 7.214844 "/>
</g>
<path style=" stroke:none;fill-rule:nonzero;fill:rgb(85.490197%,83.92157%,83.92157%);fill-opacity:1;" d="M 59.226562 14.046875 C 59.226562 15.007812 58.976562 15.867188 58.441406 16.652344 C 57.976562 17.367188 57.300781 17.902344 56.441406 18.257812 C 56.300781 18.332031 56.230469 18.507812 56.300781 18.617188 L 59.476562 24.578125 C 59.582031 24.757812 59.4375 24.972656 59.226562 24.972656 L 54.160156 24.972656 C 54.054688 24.972656 53.945312 24.898438 53.910156 24.828125 L 51.199219 19.222656 L 49.3125 19.222656 L 49.3125 24.972656 L 44.246094 24.972656 L 44.246094 9.191406 L 53.910156 9.191406 C 55.050781 9.191406 56.015625 9.40625 56.800781 9.832031 C 57.585938 10.261719 58.191406 10.867188 58.617188 11.617188 C 59.011719 12.367188 59.226562 13.191406 59.226562 14.046875 Z M 54.054688 14.261719 C 54.054688 13.832031 53.910156 13.511719 53.625 13.226562 C 53.339844 12.9375 53.019531 12.796875 52.628906 12.796875 L 49.3125 12.796875 L 49.3125 15.726562 L 52.519531 15.726562 C 52.984375 15.726562 53.445312 15.546875 53.734375 15.1875 C 53.945312 14.9375 54.054688 14.617188 54.054688 14.261719 Z M 54.054688 14.261719 "/>
<path style=" stroke:none;fill-rule:nonzero;fill:rgb(85.490197%,83.92157%,83.92157%);fill-opacity:1;" d="M 70.25 8.652344 C 72.960938 8.652344 75.066406 9.367188 76.5625 10.761719 C 78.0625 12.152344 78.773438 14.1875 78.773438 16.832031 C 78.773438 19.507812 78.027344 21.507812 76.5625 22.902344 C 75.066406 24.292969 72.996094 25.007812 70.25 25.007812 C 67.539062 25.007812 65.433594 24.328125 63.9375 22.9375 C 62.476562 21.542969 61.726562 19.507812 61.726562 16.832031 C 61.726562 14.152344 62.476562 12.117188 63.9375 10.726562 C 65.433594 9.332031 67.539062 8.652344 70.25 8.652344 Z M 70.25 12.441406 C 69.179688 12.441406 68.324219 12.761719 67.753906 13.4375 C 67.183594 14.082031 66.898438 14.976562 66.898438 16.117188 L 66.898438 17.582031 C 66.898438 18.6875 67.183594 19.582031 67.753906 20.257812 C 68.324219 20.902344 69.144531 21.257812 70.25 21.257812 C 71.320312 21.257812 72.175781 20.9375 72.746094 20.257812 C 73.316406 19.617188 73.601562 18.722656 73.601562 17.582031 L 73.601562 16.117188 C 73.601562 15.007812 73.316406 14.117188 72.746094 13.4375 C 72.175781 12.761719 71.355469 12.441406 70.25 12.441406 Z M 70.25 12.441406 "/>
<path style=" stroke:none;fill-rule:nonzero;fill:rgb(85.490197%,83.92157%,83.92157%);fill-opacity:1;" d="M 89.53125 8.652344 C 92.242188 8.652344 94.347656 9.367188 95.847656 10.761719 C 97.34375 12.152344 98.058594 14.1875 98.058594 16.832031 C 98.058594 19.507812 97.308594 21.507812 95.847656 22.902344 C 94.347656 24.292969 92.277344 25.007812 89.53125 25.007812 C 86.820312 25.007812 84.71875 24.328125 83.21875 22.9375 C 81.757812 21.542969 81.007812 19.507812 81.007812 16.832031 C 81.007812 14.152344 81.757812 12.117188 83.21875 10.726562 C 84.71875 9.332031 86.820312 8.652344 89.53125 8.652344 Z M 89.53125 12.441406 C 88.464844 12.441406 87.605469 12.761719 87.035156 13.4375 C 86.464844 14.082031 86.179688 14.976562 86.179688 16.117188 L 86.179688 17.582031 C 86.179688 18.6875 86.464844 19.582031 87.035156 20.257812 C 87.605469 20.902344 88.425781 21.257812 89.53125 21.257812 C 90.601562 21.257812 91.457031 20.9375 92.027344 20.257812 C 92.597656 19.617188 92.886719 18.722656 92.886719 17.582031 L 92.886719 16.117188 C 92.886719 15.007812 92.597656 14.117188 92.027344 13.4375 C 91.457031 12.761719 90.636719 12.441406 89.53125 12.441406 Z M 89.53125 12.441406 "/>
<path style=" stroke:none;fill-rule:nonzero;fill:rgb(85.490197%,83.92157%,83.92157%);fill-opacity:1;" d="M 100.324219 8.941406 L 113.09375 8.941406 L 113.09375 12.726562 L 105.640625 12.726562 C 105.5 12.726562 105.355469 12.832031 105.355469 13.011719 L 105.355469 15.1875 C 105.355469 15.332031 105.460938 15.472656 105.640625 15.472656 L 111.988281 15.472656 L 111.988281 19.117188 L 105.640625 19.117188 C 105.5 19.117188 105.355469 19.222656 105.355469 19.402344 L 105.355469 24.542969 C 105.355469 24.6875 105.246094 24.828125 105.070312 24.828125 L 100.574219 24.828125 C 100.433594 24.828125 100.289062 24.722656 100.289062 24.542969 L 100.289062 8.941406 Z M 100.324219 8.941406 "/>
<path style=" stroke:none;fill-rule:nonzero;fill:rgb(16.470589%,44.705883%,12.941177%);fill-opacity:1;" d="M 127.097656 25.007812 L 116.078125 25.007812 C 115.652344 25.007812 115.328125 24.652344 115.328125 24.257812 L 115.328125 9.726562 C 115.328125 9.296875 115.652344 8.976562 116.078125 8.976562 L 119.644531 8.976562 C 120.074219 8.976562 120.394531 9.332031 120.394531 9.726562 L 120.394531 20.152344 C 120.394531 20.578125 120.714844 20.902344 121.144531 20.902344 L 126.210938 20.902344 C 126.53125 20.902344 126.816406 21.117188 126.921875 21.402344 L 127.8125 24.007812 C 127.957031 24.472656 127.597656 25.007812 127.097656 25.007812 Z M 127.097656 25.007812 "/>
<path style=" stroke:none;fill-rule:nonzero;fill:rgb(16.470589%,44.705883%,12.941177%);fill-opacity:1;" d="M 139.109375 8.941406 C 139.644531 8.941406 140.035156 9.476562 139.859375 10.011719 L 138.679688 13.402344 L 134.828125 24.507812 C 134.722656 24.828125 134.4375 25.042969 134.082031 25.042969 L 129.300781 25.042969 C 128.976562 25.042969 128.691406 24.828125 128.550781 24.507812 L 127.304688 20.9375 L 123.523438 9.976562 C 123.34375 9.476562 123.699219 8.90625 124.269531 8.90625 L 128.015625 8.90625 C 128.371094 8.90625 128.65625 9.117188 128.765625 9.476562 L 131.761719 19.652344 L 131.832031 19.652344 L 134.863281 9.476562 C 134.972656 9.152344 135.253906 8.90625 135.613281 8.90625 L 139.109375 8.90625 Z M 139.109375 8.941406 "/>
<path style=" stroke:none;fill-rule:nonzero;fill:rgb(16.470589%,44.705883%,12.941177%);fill-opacity:1;" d="M 152.484375 21.6875 L 152.484375 24.222656 C 152.484375 24.652344 152.128906 25.007812 151.699219 25.007812 L 140.105469 25.007812 C 139.679688 25.007812 139.320312 24.652344 139.320312 24.222656 L 139.320312 13.511719 C 139.320312 13.402344 139.320312 13.332031 139.359375 13.261719 L 140.679688 9.476562 C 140.785156 9.152344 141.070312 8.941406 141.425781 8.941406 L 143.640625 8.941406 C 144.066406 8.941406 144.421875 9.296875 144.421875 9.726562 L 144.421875 20.113281 C 144.421875 20.542969 144.78125 20.902344 145.207031 20.902344 L 151.734375 20.902344 C 152.164062 20.902344 152.484375 21.257812 152.484375 21.6875 Z M 152.484375 21.6875 "/>
</g>
</svg>
